<?xml version="1.0" standalone="no"?><!DOCTYPE svg PUBLIC "-//W3C//DTD SVG 1.1//EN" "http://www.w3.org/Graphics/SVG/1.1/DTD/svg11.dtd"><svg class="icon" width="64px" height="64.00px" viewBox="0 0 1024 1024" version="1.1" xmlns="http://www.w3.org/2000/svg"><path fill="#cdcdcd" d="M392.687614 869.933065l29.827329 0L422.514943 154.067958 392.687614 154.067958 392.687614 869.933065zM452.342272 869.933065l29.830399 0L482.172671 154.067958l-29.830399 0L452.342272 869.933065zM243.547899 869.933065l89.485057 0L333.032956 154.067958l-89.485057 0L243.547899 869.933065zM64.583924 869.933065l119.309316 0L183.89324 154.067958l-119.309316-0.002047L64.583924 869.933065zM512 869.933065l89.481987 0L601.481987 154.067958l-89.481987 0L512 869.933065zM840.102666 154.067958l0 715.865107L959.415053 869.933065 959.415053 154.067958 840.102666 154.067958zM750.621702 869.933065l59.654658 0L810.276361 154.067958l-59.654658 0L750.621702 869.933065zM631.309316 869.933065l59.654658 0L690.963974 154.067958l-59.654658 0L631.309316 869.933065z" /></svg>