<?xml version="1.0" standalone="no"?><!DOCTYPE svg PUBLIC "-//W3C//DTD SVG 1.1//EN" "http://www.w3.org/Graphics/SVG/1.1/DTD/svg11.dtd"><svg class="icon" width="64px" height="51.20px" viewBox="0 0 1280 1024" version="1.1" xmlns="http://www.w3.org/2000/svg"><path fill="#cdcdcd" d="M608.00128 544h-128a32 32 0 0 0 0 64h128V704a32 32 0 0 0 64 0V608h128a32 32 0 0 0 0-64h-128v-64h128a32 32 0 0 0 0-64h-114.752l105.408-105.344a32 32 0 1 0-45.312-45.312L640.00128 370.752 534.65728 265.344a32 32 0 1 0-45.312 45.312L594.75328 416H480.00128a32 32 0 0 0 0 64h128v64z m609.152 149.248c34.688 5.952 62.848 39.104 62.848 75.328V960c0 35.392-29.12 64.064-63.488 64.064H63.48928A63.616 63.616 0 0 1 0.00128 960v-191.36c0-35.712 28.352-67.392 62.848-75.392C62.84928 693.248 192.00128 704 192.00128 512S62.84928 330.752 62.84928 330.752C28.16128 324.8 0.00128 291.648 0.00128 255.424V64C0.00128 28.672 29.12128 0 63.48928 0h1153.024c35.072 0 63.488 28.48 63.488 64v191.36c0 35.712-28.352 67.392-62.848 75.392C1217.15328 330.752 1088.00128 320 1088.00128 512s129.152 181.248 129.152 181.248z" /></svg>