<?xml version="1.0" standalone="no"?><!DOCTYPE svg PUBLIC "-//W3C//DTD SVG 1.1//EN" "http://www.w3.org/Graphics/SVG/1.1/DTD/svg11.dtd"><svg class="icon" width="64px" height="64.00px" viewBox="0 0 1024 1024" version="1.1" xmlns="http://www.w3.org/2000/svg"><path fill="#cdcdcd" d="M599.68 375.168l-27.296 24.256V208.544h-80.832v311.072a316.544 316.544 0 0 1 151.072-105.952c-14.112-12.768-27.872-25.408-42.944-38.496z m-184.48 40.704a2178.88 2178.88 0 0 1-55.712 83.616c-7.456-4.832-15.04-9.568-22.848-14.208v-26.208a952.64 952.64 0 0 0 58.528-78.88v-66.88h-90.88l49.056-28.992a1231.808 1231.808 0 0 0-66.336-84.736L222.912 235.84a1318.624 1318.624 0 0 1 56.576 77.472H179.424v72.448h125.408c-37.152 48.704-82.496 94.592-136 137.696 9.312 26.4 17.664 54.464 25.088 84.16 23.04-21.344 44.8-42.336 65.248-62.944v213.44h77.472v-195.36c25.248 19.008 51.84 39.52 79.712 61.632l42.304-53.056c0.96-1.888 1.76-3.84 2.752-5.728l-53.152-35.136a2006.24 2006.24 0 0 0 62.688-79.424l-55.744-35.168zM653.472 702.944l40.416 78.24s65.6-159.104 169.088-212.064c-2.496 37.856-12.608 70.688 5.056 111.104-45.44 10.112-138.848 123.68-169.152 179.328-42.912-53.088-93.408-93.44-128.704-106.08l83.296-50.528zM440 819.424H92.032a10.624 10.624 0 0 1-10.624-10.592V130.08c0-5.824 4.768-10.624 10.624-10.624h678.752c5.888 0 10.656 4.768 10.656 10.624v268.672a314.144 314.144 0 0 1 74.24 18.944V130.08a84.864 84.864 0 0 0-84.896-84.832H92.032A84.864 84.864 0 0 0 7.2 130.08v678.752a84.896 84.896 0 0 0 84.832 84.864h385.536a318.272 318.272 0 0 1-37.568-74.272zM740.384 438.56a275.712 275.712 0 0 0-275.744 275.744 275.68 275.68 0 0 0 275.744 275.744 275.712 275.712 0 0 0 275.744-275.744 275.744 275.744 0 0 0-275.744-275.744z m0 477.248a201.504 201.504 0 1 1 0-403.008 201.504 201.504 0 1 1 0 403.008z" /></svg>